<svg width="17" height="16" viewBox="0 0 17 16" fill="none" xmlns="http://www.w3.org/2000/svg">
<path d="M10.3 4.20003C10.1779 4.32465 10.1095 4.49219 10.1095 4.66669C10.1095 4.8412 10.1779 5.00874 10.3 5.13336L11.3667 6.20003C11.4913 6.32218 11.6589 6.3906 11.8334 6.3906C12.0079 6.3906 12.1754 6.32218 12.3 6.20003L14.8134 3.68669C15.1486 4.42749 15.2501 5.25285 15.1043 6.05279C14.9586 6.85273 14.5725 7.58926 13.9975 8.16421C13.4226 8.73917 12.6861 9.12525 11.8861 9.271C11.0862 9.41675 10.2608 9.31525 9.52003 8.98003L4.91336 13.5867C4.64814 13.8519 4.28843 14.0009 3.91336 14.0009C3.53829 14.0009 3.17858 13.8519 2.91336 13.5867C2.64814 13.3215 2.49915 12.9618 2.49915 12.5867C2.49915 12.2116 2.64814 11.8519 2.91336 11.5867L7.52003 6.98003C7.1848 6.23923 7.0833 5.41387 7.22905 4.61393C7.3748 3.81399 7.76088 3.07746 8.33584 2.50251C8.9108 1.92755 9.64732 1.54147 10.4473 1.39572C11.2472 1.24997 12.0726 1.35147 12.8134 1.68669L10.3067 4.19336L10.3 4.20003Z" stroke="#0099FF" stroke-linecap="round" stroke-linejoin="round"/>
</svg>
