<svg width="17" height="16" viewBox="0 0 17 16" fill="none" xmlns="http://www.w3.org/2000/svg">
<path d="M15.1666 9.99996H13.8333V7.99996C13.8333 7.82315 13.7631 7.65358 13.638 7.52855C13.513 7.40353 13.3434 7.33329 13.1666 7.33329H9.16663V5.99996H10.5C10.6768 5.99996 10.8463 5.92972 10.9714 5.8047C11.0964 5.67967 11.1666 5.5101 11.1666 5.33329V1.33329C11.1666 1.15648 11.0964 0.986912 10.9714 0.861888C10.8463 0.736864 10.6768 0.666626 10.5 0.666626H6.49996C6.32315 0.666626 6.15358 0.736864 6.02855 0.861888C5.90353 0.986912 5.83329 1.15648 5.83329 1.33329V5.33329C5.83329 5.5101 5.90353 5.67967 6.02855 5.8047C6.15358 5.92972 6.32315 5.99996 6.49996 5.99996H7.83329V7.33329H3.83329C3.65648 7.33329 3.48691 7.40353 3.36189 7.52855C3.23686 7.65358 3.16663 7.82315 3.16663 7.99996V9.99996H1.83329C1.65648 9.99996 1.48691 10.0702 1.36189 10.1952C1.23686 10.3202 1.16663 10.4898 1.16663 10.6666V14.6666C1.16663 14.8434 1.23686 15.013 1.36189 15.138C1.48691 15.2631 1.65648 15.3333 1.83329 15.3333H5.83329C6.0101 15.3333 6.17967 15.2631 6.3047 15.138C6.42972 15.013 6.49996 14.8434 6.49996 14.6666V10.6666C6.49996 10.4898 6.42972 10.3202 6.3047 10.1952C6.17967 10.0702 6.0101 9.99996 5.83329 9.99996H4.49996V8.66663H12.5V9.99996H11.1666C10.9898 9.99996 10.8202 10.0702 10.6952 10.1952C10.5702 10.3202 10.5 10.4898 10.5 10.6666V14.6666C10.5 14.8434 10.5702 15.013 10.6952 15.138C10.8202 15.2631 10.9898 15.3333 11.1666 15.3333H15.1666C15.3434 15.3333 15.513 15.2631 15.638 15.138C15.7631 15.013 15.8333 14.8434 15.8333 14.6666V10.6666C15.8333 10.4898 15.7631 10.3202 15.638 10.1952C15.513 10.0702 15.3434 9.99996 15.1666 9.99996ZM5.16663 11.3333V14H2.49996V11.3333H5.16663ZM7.16663 4.66663V1.99996H9.83329V4.66663H7.16663ZM14.5 14H11.8333V11.3333H14.5V14Z" fill="#0099FF"/>
</svg>
