<svg width="16" height="16" viewBox="0 0 16 16" fill="none" xmlns="http://www.w3.org/2000/svg">
<path d="M8.20008 8.14671C8.5558 7.8388 8.84111 7.45796 9.03666 7.03006C9.23221 6.60215 9.33342 6.13718 9.33342 5.66671C9.33342 4.78265 8.98223 3.93481 8.3571 3.30968C7.73198 2.68456 6.88414 2.33337 6.00008 2.33337C5.11603 2.33337 4.26818 2.68456 3.64306 3.30968C3.01794 3.93481 2.66675 4.78265 2.66675 5.66671C2.66674 6.13718 2.76795 6.60215 2.9635 7.03006C3.15905 7.45796 3.44436 7.8388 3.80008 8.14671C2.86684 8.5693 2.07506 9.25173 1.5194 10.1124C0.963745 10.9731 0.667729 11.9756 0.666748 13C0.666748 13.1769 0.736986 13.3464 0.86201 13.4714C0.987034 13.5965 1.1566 13.6667 1.33341 13.6667C1.51023 13.6667 1.6798 13.5965 1.80482 13.4714C1.92984 13.3464 2.00008 13.1769 2.00008 13C2.00008 11.9392 2.42151 10.9218 3.17165 10.1716C3.9218 9.42147 4.93922 9.00004 6.00008 9.00004C7.06095 9.00004 8.07836 9.42147 8.82851 10.1716C9.57865 10.9218 10.0001 11.9392 10.0001 13C10.0001 13.1769 10.0703 13.3464 10.1953 13.4714C10.3204 13.5965 10.4899 13.6667 10.6667 13.6667C10.8436 13.6667 11.0131 13.5965 11.1382 13.4714C11.2632 13.3464 11.3334 13.1769 11.3334 13C11.3324 11.9756 11.0364 10.9731 10.4808 10.1124C9.92511 9.25173 9.13332 8.5693 8.20008 8.14671ZM6.00008 7.66671C5.60452 7.66671 5.21784 7.54941 4.88894 7.32965C4.56004 7.10988 4.3037 6.79753 4.15232 6.43207C4.00095 6.06662 3.96134 5.66449 4.03851 5.27653C4.11568 4.88856 4.30616 4.5322 4.58587 4.25249C4.86557 3.97279 5.22194 3.78231 5.6099 3.70514C5.99786 3.62797 6.4 3.66757 6.76545 3.81895C7.1309 3.97032 7.44326 4.22667 7.66302 4.55557C7.88278 4.88447 8.00008 5.27114 8.00008 5.66671C8.00008 6.19714 7.78937 6.70585 7.4143 7.08092C7.03922 7.45599 6.53051 7.66671 6.00008 7.66671ZM12.4934 7.88004C12.9201 7.39959 13.1988 6.80608 13.2959 6.17093C13.3931 5.53579 13.3047 4.88609 13.0413 4.30004C12.7778 3.71399 12.3506 3.21657 11.8111 2.86766C11.2715 2.51874 10.6426 2.3332 10.0001 2.33337C9.82327 2.33337 9.6537 2.40361 9.52868 2.52864C9.40365 2.65366 9.33342 2.82323 9.33342 3.00004C9.33342 3.17685 9.40365 3.34642 9.52868 3.47145C9.6537 3.59647 9.82327 3.66671 10.0001 3.66671C10.5305 3.66671 11.0392 3.87742 11.4143 4.25249C11.7894 4.62757 12.0001 5.13627 12.0001 5.66671C11.9991 6.01687 11.9063 6.36064 11.7308 6.66365C11.5553 6.96667 11.3033 7.21829 11.0001 7.39337C10.9012 7.45039 10.8187 7.53182 10.7603 7.62987C10.702 7.72792 10.6697 7.83931 10.6667 7.95337C10.664 8.06655 10.69 8.17857 10.7425 8.27888C10.795 8.37919 10.8722 8.46448 10.9667 8.52671L11.2267 8.70004L11.3134 8.74671C12.117 9.12785 12.795 9.7307 13.2674 10.4843C13.7398 11.2378 13.9871 12.1107 13.9801 13C13.9801 13.1769 14.0503 13.3464 14.1753 13.4714C14.3004 13.5965 14.4699 13.6667 14.6467 13.6667C14.8236 13.6667 14.9931 13.5965 15.1182 13.4714C15.2432 13.3464 15.3134 13.1769 15.3134 13C15.3189 11.977 15.0626 10.9695 14.5691 10.0734C14.0755 9.17729 13.361 8.42225 12.4934 7.88004Z" fill="#0099FF"/>
</svg>
